# xmcd
#
# Track frame offsets:
#	150
#	13045
#	45557
#	59664
#	88151
#	118348
#	145625
#	173067
#	204349
#	233381
#	245058
#	277410
#
# Disc length: 4042 seconds
#
# Revision: 0
# Processed by: cddbd v1.5.1PL2 Copyright (c) Steve Scherf et al.
# Submitted via: audiograbber 1.83.01
#
DISCID=ad0fc80c
DTITLE=Estudiantina Invasora - Music from Oriente de Cuba - The Estudiantina Tr
DTITLE=adition
DYEAR=1900
DGENRE=National Folk
TTITLE0=La tarde
TTITLE1=Manena
TTITLE2=Caballo viejo
TTITLE3=El paralítico
TTITLE4=Cristinita
TTITLE5=Bodas de ouro
TTITLE6=Lágrimas negras
TTITLE7=Compay Yerena
TTITLE8=Retorna
TTITLE9=Amor inviolado
TTITLE10=Isla Mujeres
TTITLE11=Luisa
EXTD=
EXTT0=
EXTT1=
EXTT2=
EXTT3=
EXTT4=
EXTT5=
EXTT6=
EXTT7=
EXTT8=
EXTT9=
EXTT10=
EXTT11=
PLAYORDER=
